# xmcd
#
# Track frame offsets:
#	150
#	13625
#	27972
#	41477
#	55052
#	68325
#	81507
#	94800
#	110947
#	123087
#
# Disc length: 1800
#
# Revision: 3
# Processed by: cddbd v1.5.1PL0 Copyright (c) Steve Scherf et al.
# Submitted via: CDex 1.30Release
# Normalized: r1:TDELIM( - ),TSWAP
#
DISCID=7b07060a
DTITLE=Various Artist - Country Pride_Back To The Country
DYEAR=1900
DGENRE=Country
TTITLE0=Mel McDaniel - Baby's Got Her Blue Jeans On
TTITLE1=T Graham Brown - Darlene
TTITLE2=Deborah Allen - I've Been Wrong Before
TTITLE3=Johnny Paycheck - I'm The Only Hell My Mama Ever Raised
TTITLE4=Lacy J Dalton - Life's Railway To Heaven
TTITLE5=Margo Smith - Don't Break The Heart That Loves You
TTITLE6=Donna Fargo - Somebody Special
TTITLE7=Lynn Anderson - I Was Country When Country Wasn't Cool
TTITLE8=Willie Nelson - Is There Something On Your Mind
TTITLE9=Red Steagall - Truck Drivin' Man
EXTD=ID3G:   2
EXTT0=
EXTT1=
EXTT2=
EXTT3=
EXTT4=
EXTT5=
EXTT6=
EXTT7=
EXTT8=
EXTT9=
PLAYORDER=
